<svg xmlns="http://www.w3.org/2000/svg" xmlns:xlink="http://www.w3.org/1999/xlink" version="1.1" id="Layer_1" x="0px" y="0px" viewBox="0 0 398.5 371.4" style="enable-background:new 0 0 398.5 371.4;" xml:space="preserve">
<style type="text/css">
	.st0{fill:#0c7f98;stroke:#0c7f98;stroke-width:2;stroke-miterlimit:10;}
	.st1{fill:#093252;stroke:#093252;stroke-width:2;stroke-miterlimit:10;}
</style>
<g>
	<g>
		<path class="st0" d="M388.1,351.5h-17.2V142.7c0-5.2-4.2-9.4-9.4-9.4h-75.2c-5.2,0-9.4,4.2-9.4,9.4v208.8h-31.3V205.4    c0-5.2-4.2-9.4-9.4-9.4h-75.2c-5.2,0-9.4,4.2-9.4,9.4v146.2h-31.3v-83.5c0-5.2-4.2-9.4-9.4-9.4H35.5c-5.2,0-9.4,4.2-9.4,9.4v83.5    H10.4c-5.2,0-9.4,4.2-9.4,9.4c0,5.2,4.2,9.4,9.4,9.4h377.6c5.2,0,9.4-4.2,9.4-9.4C397.5,355.8,393.3,351.5,388.1,351.5z     M44.9,320.5v-43h56.3v74.1H44.9v-4.4V320.5z M170.3,331.5v-47v-26.7v-43h56.3v136.7h-56.3V331.5z M295.6,152.1H352v199.4l0,0    h-30.7l-25.7,0v-50.3l0-26.7v-51.3V152.1z"/>
	</g>
</g>
<g>
	<g>
		<path class="st1" d="M390.9,15.5l-38-13.9c-4.9-1.8-10.3,0.7-12.1,5.6c-1.8,4.9,0.7,10.3,5.6,12.1l17.9,6.5L8.6,204.1    c-4.7,2.3-6.5,8-4.2,12.7c1.7,3.3,5,5.2,8.4,5.2c1.4,0,2.9-0.3,4.2-1l354-177.4l-6.2,17.1c-1.8,4.9,0.7,10.3,5.6,12.1    c4.9,1.8,10.3-0.7,12.1-5.6l14.4-39.4C398.8,22.7,396,17.1,390.9,15.5z"/>
	</g>
</g>
</svg>