<svg xmlns="http://www.w3.org/2000/svg" xmlns:xlink="http://www.w3.org/1999/xlink" version="1.1" id="Layer_1" x="0px" y="0px" viewBox="0 0 317.9 373.4" style="enable-background:new 0 0 317.9 373.4;" xml:space="preserve">
<style type="text/css">
	.st0{fill:#0c7f98;stroke:#0c7f98;stroke-width:2;stroke-miterlimit:10;}
	.st1{fill:#093252;stroke:#093252;stroke-width:2;stroke-miterlimit:10;}
</style>
<g>
	<g>
		<g>
			<path class="st0" d="M314.9,309.4l-54-94.8c5.5-2.6,8.8-8.4,8.4-15l-4-33.6l23-24.1c5.1-5.1,5.5-13.9,0.4-20.1l-23-24.8l4.7-33.9     c0.7-7.3-4.4-14.6-11.7-16.1l-33.2-6.6L209.4,11c-3.3-6.9-11.3-9.8-18.6-6.9h-0.4l-30.6,14.2L129.9,3.7     c-3.3-1.8-7.3-2.2-10.9-1.1s-6.6,3.6-8.4,6.9L94.2,39.1L61,44.9c-7.7,1.5-12.8,8.4-12,16.4l4,33.6L30,119     c-5.1,5.1-5.5,13.9-0.4,20.1l23,24.8l-4.7,33.9c-0.7,6.6,3.3,12.8,9.5,15.3L3,309.4c-1.5,2.2-1.1,5.1,0,7.3     c1.5,2.2,3.6,3.6,6.2,3.6h58.4l26.6,46.3c1.5,2.2,3.6,3.6,6.2,3.6c2.6,0,5.1-1.5,6.2-3.6l52.2-89l52.2,90.1     c1.5,2.2,3.6,3.6,6.2,3.6s5.1-1.5,6.2-3.6l26.6-47.4h58.4c2.6,0,5.1-1.5,6.2-3.6C316.3,314.5,316.3,311.6,314.9,309.4z      M100.7,348.4l-22.6-39c-1.5-2.2-3.6-3.6-6.2-3.6H21.6l50.3-89l20.8,3.6l16.1,29.5c3.3,6.9,11.3,9.8,18.6,6.9h0.4l15-6.9     l7.3,12.8L100.7,348.4z M121.9,243.7c-0.4,0-0.4,0-0.4,0l-16.1-30.3c-2.2-3.6-5.8-6.6-10.2-6.9l-33.6-6.2l4.7-33.6     c0.7-4.4-0.7-9.1-3.6-12l-22.6-24.8l23-24.1c3.3-3.3,4.7-7.7,4-12l-4-33.2c0,0,0-0.4,0.4-0.7l33.2-5.8c4-0.7,8-3.3,10.2-7.3     l16.4-29.5l29.9,14.6c4,2.2,9.1,2.2,13.1,0l30.3-13.9c0.4,0,0.4,0,0.4,0l16.1,30.3c2.2,3.6,5.8,6.6,9.8,6.9l33.2,6.6l-4.7,33.6     c-0.7,4.4,0.7,9.1,3.6,12l23,24.8l-23.3,24.1c-3.3,3.3-4.7,7.7-4,12l4,33.6l-32.8,5.5c-4,0.7-8,3.3-10.2,7.3l-16.4,29.5     l-29.9-14.6c-4-2.2-9.1-2.2-13.1,0L121.9,243.7z M245.9,305.8c-2.6,0-5.1,1.5-6.2,3.6l-22.6,40.1l-51.4-89     c-0.4-1.1-0.7-1.8-1.5-2.6l-8-14.2l2.6-1.1l29.9,14.6c2.2,1.1,4.4,1.5,6.6,1.5c5.1,0,10.2-2.6,12.8-7.3l16.4-29.5l21.9-4l50,87.9     H245.9z"/>
			<path class="st0" d="M231.7,130.7c0-40.1-32.8-73-73-73s-73,32.8-73,73s32.8,73,73,73S231.7,170.8,231.7,130.7z M158.7,189     c-32.1,0-58.4-26.3-58.4-58.4s26.3-58.4,58.4-58.4s58.4,26.3,58.4,58.4S190.8,189,158.7,189z"/>
		</g>
	</g>
</g>
<g>
	<g>
		<g>
			<path class="st1" d="M158.6,277.7 M260.7,214.6c5.5-2.6,8.8-8.4,8.4-15l-4-33.6l23-24.1c5.1-5.1,5.5-13.9,0.4-20.1l-23-24.8     l4.7-33.9c0.7-7.3-4.4-14.6-11.7-16.1l-33.2-6.6L209.3,11C206,4.1,198,1.2,190.7,4.1h-0.4l-30.6,14.2L129.8,3.7     c-3.3-1.8-7.3-2.2-10.9-1.1c-3.6,1.1-6.6,3.6-8.4,6.9L94,39.1l-33.2,5.8c-7.7,1.5-12.8,8.4-12,16.4l4,33.6l-23,24.1     c-5.1,5.1-5.5,13.9-0.4,20.1l23,24.8l-4.7,33.9c-0.7,6.6,3.3,12.8,9.5,15.3l14.6,3.6l20.8,3.6l16.1,29.5     c3.3,6.9,11.3,9.8,18.6,6.9h0.4l15-6.9l13.5-6.2l2.6-1.1l29.9,14.6c2.2,1.1,4.4,1.5,6.6,1.5c5.1,0,10.2-2.6,12.8-7.3l16.4-29.5     l21.9-4 M105.3,213.5c-2.2-3.6-5.8-6.6-10.2-6.9l-33.6-6.2l4.7-33.6c0.7-4.4-0.7-9.1-3.6-12L40,129.9l23-24.1     c3.3-3.3,4.7-7.7,4-12l-4-33.2c0,0,0-0.4,0.4-0.7l33.2-5.8c4-0.7,8-3.3,10.2-7.3l16.4-29.5l29.9,14.6c4,2.2,9.1,2.2,13.1,0     l30.3-13.9c0.4,0,0.4,0,0.4,0l16.1,30.3c2.2,3.6,5.8,6.6,9.8,6.9l33.2,6.6l-4.7,33.6c-0.7,4.4,0.7,9.1,3.6,12l23,24.8l-23.3,24.1     c-3.3,3.3-4.7,7.7-4,12l4,33.6l-32.8,5.5c-4,0.7-8,3.3-10.2,7.3l-16.4,29.5l-29.9-14.6c-4-2.2-9.1-2.2-13.1,0l-30.3,14.2     c-0.4,0-0.4,0-0.4,0L105.3,213.5z"/>
			<path class="st1" d="M231.5,130.7c0-40.1-32.8-73-73-73s-73,32.8-73,73s32.8,73,73,73S231.5,170.8,231.5,130.7z M158.6,189     c-32.1,0-58.4-26.3-58.4-58.4s26.3-58.4,58.4-58.4S217,98.6,217,130.7S190.7,189,158.6,189z"/>
		</g>
	</g>
</g>
</svg>